<svg width="4076" height="1969" xmlns="http://www.w3.org/2000/svg" xmlns:xlink="http://www.w3.org/1999/xlink" xml:space="preserve" overflow="hidden"><g transform="translate(-145 -341)"><path d="M191.5 499.001 3916.5 499.001 3916.5 352.5 4209.5 645.502 3916.5 938.5 3916.5 791.999 191.5 791.999Z" stroke="#FFFFFF" stroke-width="9.16667" stroke-miterlimit="8" fill="#005EA4" fill-rule="evenodd"/><text fill="#FFFFFF" font-family="Intel Clear,Intel Clear_MSFontService,sans-serif" font-weight="400" font-size="133" transform="matrix(1 0 0 1 230.671 657)">Host</text><rect x="191.5" y="804.5" width="1237" height="1127" stroke="#0068B5" stroke-width="9.16667" stroke-linejoin="round" stroke-miterlimit="10" fill="#FFFFFF"/><text font-family="Intel Clear,Intel Clear_MSFontService,sans-serif" font-weight="400" font-size="105" transform="matrix(1 0 0 1 222.421 927)">OCI Wrapper Image</text><text font-family="Intel Clear,Intel Clear_MSFontService,sans-serif" font-weight="400" font-size="83" transform="matrix(1 0 0 1 222.421 1077)">•</text><text font-family="Intel Clear,Intel Clear_MSFontService,sans-serif" font-weight="400" font-size="83" transform="matrix(1 0 0 1 284.296 1077)">ACON images embedded in </text><text font-family="Intel Clear,Intel Clear_MSFontService,sans-serif" font-weight="400" font-size="83" transform="matrix(1 0 0 1 284.296 1173)">/</text><text font-family="Intel Clear,Intel Clear_MSFontService,sans-serif" font-weight="400" font-size="83" transform="matrix(1 0 0 1 316.311 1173)">acon</text><text font-family="Intel Clear,Intel Clear_MSFontService,sans-serif" font-weight="400" font-size="83" transform="matrix(1 0 0 1 496.39 1173)">/ directory (ACON Repo)</text><text font-family="Intel Clear,Intel Clear_MSFontService,sans-serif" font-weight="400" font-size="83" transform="matrix(1 0 0 1 222.421 1284)">•</text><text font-family="Intel Clear,Intel Clear_MSFontService,sans-serif" font-weight="400" font-size="83" transform="matrix(1 0 0 1 284.296 1284)">aconcli</text><text font-family="Intel Clear,Intel Clear_MSFontService,sans-serif" font-weight="400" font-size="83" transform="matrix(1 0 0 1 567.569 1284)">as </text><text font-family="Intel Clear,Intel Clear_MSFontService,sans-serif" font-weight="400" font-size="83" transform="matrix(1 0 0 1 668.952 1284)">entrypoint</text><text font-family="Intel Clear,Intel Clear_MSFontService,sans-serif" font-weight="400" font-size="83" transform="matrix(1 0 0 1 222.421 1396)">•</text><text font-family="Intel Clear,Intel Clear_MSFontService,sans-serif" font-weight="400" font-size="83" transform="matrix(1 0 0 1 284.296 1396)">qemu</text><text font-family="Intel Clear,Intel Clear_MSFontService,sans-serif" font-weight="400" font-size="105" transform="matrix(1 0 0 1 222.421 1528)">OCI Runtime</text><text font-family="Intel Clear,Intel Clear_MSFontService,sans-serif" font-weight="400" font-size="83" transform="matrix(1 0 0 1 222.421 1678)">•</text><text font-family="Intel Clear,Intel Clear_MSFontService,sans-serif" font-weight="400" font-size="83" transform="matrix(1 0 0 1 284.296 1678)">/dev/</text><text font-family="Intel Clear,Intel Clear_MSFontService,sans-serif" font-weight="400" font-size="83" transform="matrix(1 0 0 1 484.519 1678)">kvm</text><text font-family="Intel Clear,Intel Clear_MSFontService,sans-serif" font-weight="400" font-size="83" transform="matrix(1 0 0 1 222.421 1790)">•</text><text font-family="Intel Clear,Intel Clear_MSFontService,sans-serif" font-weight="400" font-size="83" transform="matrix(1 0 0 1 284.296 1790)">/dev/</text><text font-family="Intel Clear,Intel Clear_MSFontService,sans-serif" font-weight="400" font-size="83" transform="matrix(1 0 0 1 484.519 1790)">vhost</text><text font-family="Intel Clear,Intel Clear_MSFontService,sans-serif" font-weight="400" font-size="83" transform="matrix(1 0 0 1 690.93 1790)">-</text><text font-family="Intel Clear,Intel Clear_MSFontService,sans-serif" font-weight="400" font-size="83" transform="matrix(1 0 0 1 723.769 1790)">vsock</text><text font-family="Intel Clear,Intel Clear_MSFontService,sans-serif" font-weight="400" font-size="83" transform="matrix(1 0 0 1 956.35 1790)">(optional)</text><path d="M1428.5 694.749 3917 694.749 3917 548.5 4209.5 841.001 3917 1133.5 3917 987.251 1428.5 987.251Z" stroke="#FFFFFF" stroke-width="9.16667" stroke-miterlimit="8" fill="#2C7BD8" fill-rule="evenodd"/><text fill="#FFFFFF" font-family="Intel Clear,Intel Clear_MSFontService,sans-serif" font-weight="400" font-size="133" transform="matrix(1 0 0 1 1468.34 852)">Wrapper Container</text><rect x="1428.5" y="999.5" width="1238" height="1127" stroke="#0068B5" stroke-width="9.16667" stroke-linejoin="round" stroke-miterlimit="10" fill="#FFFFFF"/><text font-family="Intel Clear,Intel Clear_MSFontService,sans-serif" font-weight="400" font-size="105" transform="matrix(1 0 0 1 1460.09 1122)">aconcli</text><text font-family="Intel Clear,Intel Clear_MSFontService,sans-serif" font-weight="400" font-size="83" transform="matrix(1 0 0 1 1460.09 1272)">•</text><text font-family="Intel Clear,Intel Clear_MSFontService,sans-serif" font-weight="400" font-size="83" transform="matrix(1 0 0 1 1521.97 1272)">Start </text><text font-family="Intel Clear,Intel Clear_MSFontService,sans-serif" font-weight="400" font-size="83" transform="matrix(1 0 0 1 1722.23 1272)">aTD</text><text font-family="Intel Clear,Intel Clear_MSFontService,sans-serif" font-weight="400" font-size="83" transform="matrix(1 0 0 1 1892.34 1272)">(using </text><text font-family="Intel Clear,Intel Clear_MSFontService,sans-serif" font-weight="400" font-size="83" transform="matrix(1 0 0 1 2136.29 1272)">qemu</text><text font-family="Intel Clear,Intel Clear_MSFontService,sans-serif" font-weight="400" font-size="83" transform="matrix(1 0 0 1 2350.86 1272)">)</text><text font-family="Intel Clear,Intel Clear_MSFontService,sans-serif" font-weight="400" font-size="83" transform="matrix(1 0 0 1 1460.09 1384)">•</text><text font-family="Intel Clear,Intel Clear_MSFontService,sans-serif" font-weight="400" font-size="83" transform="matrix(1 0 0 1 1521.97 1384)">Load/Launch images residing </text><text font-family="Intel Clear,Intel Clear_MSFontService,sans-serif" font-weight="400" font-size="83" transform="matrix(1 0 0 1 1521.97 1479)">in /</text><text font-family="Intel Clear,Intel Clear_MSFontService,sans-serif" font-weight="400" font-size="83" transform="matrix(1 0 0 1 1642.9 1479)">acon</text><text font-family="Intel Clear,Intel Clear_MSFontService,sans-serif" font-weight="400" font-size="83" transform="matrix(1 0 0 1 1822.98 1479)">/ (ACON Repo)</text><text font-family="Intel Clear,Intel Clear_MSFontService,sans-serif" font-weight="400" font-size="105" transform="matrix(1 0 0 1 1460.09 1611)">qemu</text><text font-family="Intel Clear,Intel Clear_MSFontService,sans-serif" font-weight="400" font-size="83" transform="matrix(1 0 0 1 1460.09 1761)">•</text><text font-family="Intel Clear,Intel Clear_MSFontService,sans-serif" font-weight="400" font-size="83" transform="matrix(1 0 0 1 1521.97 1761)">Direct kernel boot </text><text font-family="Intel Clear,Intel Clear_MSFontService,sans-serif" font-weight="400" font-size="83" transform="matrix(1 0 0 1 1460.09 1873)">•</text><text font-family="Intel Clear,Intel Clear_MSFontService,sans-serif" font-weight="400" font-size="83" transform="matrix(1 0 0 1 1521.97 1873)">acond</text><text font-family="Intel Clear,Intel Clear_MSFontService,sans-serif" font-weight="400" font-size="83" transform="matrix(1 0 0 1 1771.99 1873)">in </text><text font-family="Intel Clear,Intel Clear_MSFontService,sans-serif" font-weight="400" font-size="83" transform="matrix(1 0 0 1 1860.9 1873)">initrd</text><text font-family="Intel Clear,Intel Clear_MSFontService,sans-serif" font-weight="400" font-size="83" transform="matrix(1 0 0 1 2059.2 1873)">, run as </text><text font-family="Intel Clear,Intel Clear_MSFontService,sans-serif" font-weight="400" font-size="83" transform="matrix(1 0 0 1 2345.59 1873)">init</text><path d="M2666.5 889.75 3917 889.75 3917 743.5 4209.5 1036 3917 1328.5 3917 1182.25 2666.5 1182.25Z" stroke="#FFFFFF" stroke-width="9.16667" stroke-miterlimit="8" fill="#95A9CF" fill-rule="evenodd"/><text fill="#FFFFFF" font-family="Intel Clear,Intel Clear_MSFontService,sans-serif" font-weight="400" font-size="133" transform="matrix(1 0 0 1 2706.01 1047)">aTD</text><rect x="2666.5" y="1194.5" width="1238" height="1111" stroke="#0068B5" stroke-width="9.16667" stroke-linejoin="round" stroke-miterlimit="10" fill="#FFFFFF"/><text font-family="Intel Clear,Intel Clear_MSFontService,sans-serif" font-weight="400" font-size="105" transform="matrix(1 0 0 1 2697.76 1318)">acond</text><text font-family="Intel Clear,Intel Clear_MSFontService,sans-serif" font-weight="400" font-size="83" transform="matrix(1 0 0 1 2697.76 1468)">•</text><text font-family="Intel Clear,Intel Clear_MSFontService,sans-serif" font-weight="400" font-size="83" transform="matrix(1 0 0 1 2759.64 1468)">Evaluate policy</text><text font-family="Intel Clear,Intel Clear_MSFontService,sans-serif" font-weight="400" font-size="83" transform="matrix(1 0 0 1 2697.76 1580)">•</text><text font-family="Intel Clear,Intel Clear_MSFontService,sans-serif" font-weight="400" font-size="83" transform="matrix(1 0 0 1 2759.64 1580)">Measure ACON manifest</text><text font-family="Intel Clear,Intel Clear_MSFontService,sans-serif" font-weight="400" font-size="105" transform="matrix(1 0 0 1 2697.76 1711)">ACON image/container</text><text font-family="Intel Clear,Intel Clear_MSFontService,sans-serif" font-weight="400" font-size="83" transform="matrix(1 0 0 1 2697.76 1861)">•</text><text font-family="Intel Clear,Intel Clear_MSFontService,sans-serif" font-weight="400" font-size="83" transform="matrix(1 0 0 1 2759.64 1861)">Collaborate via shared </text><text font-family="Intel Clear,Intel Clear_MSFontService,sans-serif" font-weight="400" font-size="83" transform="matrix(1 0 0 1 2759.64 1957)">directory or Unix sockets</text><text font-family="Intel Clear,Intel Clear_MSFontService,sans-serif" font-weight="400" font-size="83" transform="matrix(1 0 0 1 2697.76 2069)">•</text><text font-family="Intel Clear,Intel Clear_MSFontService,sans-serif" font-weight="400" font-size="83" transform="matrix(1 0 0 1 2759.64 2069)">Request quotes through </text><text font-family="Intel Clear,Intel Clear_MSFontService,sans-serif" font-weight="400" font-size="83" transform="matrix(1 0 0 1 2759.64 2165)">acond’s</text><text font-family="Intel Clear,Intel Clear_MSFontService,sans-serif" font-weight="400" font-size="83" transform="matrix(1 0 0 1 3065.6 2165)">interface</text></g></svg>